#N canvas 213 206 889 369 12;
#X declare -lib zexy;
#X declare -lib zexy;
#N canvas 197 96 1076 664 instrucam 0;
#N canvas 56 96 450 300 gemwin 0;
#X obj 236 76 gemwin;
#X obj 67 89 outlet;
#X obj 67 10 inlet;
#X msg 67 70 set destroy;
#X msg 236 59 create \, 1;
#X msg 302 59 destroy;
#X msg 156 71 set create;
#X obj 67 41 route create;
#X connect 2 0 7 0;
#X connect 3 0 1 0;
#X connect 4 0 0 0;
#X connect 5 0 0 0;
#X connect 6 0 1 0;
#X connect 7 0 3 0;
#X connect 7 0 4 0;
#X connect 7 1 6 0;
#X connect 7 1 5 0;
#X restore 20 175 pd gemwin;
#X obj 9 -81 gemhead;
#X obj 9 -54 pix_video;
#X obj 9 57 pix_texture;
#X obj 679 52 dac~;
#X obj 9 -29 pix_blob 1;
#X obj 147 -49 r float_zero;
#X obj 528 234 f;
#X obj 733 234 f, f 2;
#X obj 275 -51 r float_um;
#X obj 116 405 s b_on;
#X obj 19 120 r b_on;
#X text 224 343 Clique para ligar e desligar a webcam, f 17;
#X obj 9 83 square 3;
#X obj 206 367 tgl 15 0 empty empty empty 17 7 0 10 -4160 -262144 -262144
0 1;
#X obj 130 150 line 0 100;
#X obj 130 112 tgl 15 0 empty empty empty 17 7 0 10 -262144 -1 -1 0
1;
#X msg 130 129 \$1 1000;
#X obj 215 483 hsl 120 30 0.0001 1 0 0 empty empty Volume_Geral -2
-8 0 10 -258113 -262144 -1 5400 1;
#X obj 156 513 s vol;
#X obj 135 382 s val_on;
#X obj 131 70 r val_on;
#X obj 130 91 delay 1500;
#X obj 206 428 bng 15 250 50 0 empty empty empty 17 7 0 10 -13381 -262144
-1;
#X obj 105 443 s b_silence;
#X obj 653 146 r b_silence;
#X text 223 398 Clique para redefinir o "silêncio. (3s para captura)
, f 17;
#X obj 653 167 delay 3000;
#X obj 116 382 bng 15 250 50 0 empty empty empty 17 7 0 10 -262144
-1 -1;
#X msg 20 145 create;
#X obj 129 -8 - 0;
#X obj 257 -7 - 0;
#X msg 183 -5 20000;
#X msg 309 -2 10000;
#X obj 129 17 * 1000;
#X obj 257 18 * 800;
#X obj 203 307 tgl 20 0 empty empty empty 17 7 0 10 -257985 -1 -1 0
1;
#X obj 868 156 sel;
#X obj 886 131 r icsm_dsp_sel;
#X text 907 155 DSP ON/OFF;
#X msg 886 181 \; icsm_dsp_sel \$1 \; pd dsp \$1 \;;
#X obj 139 327 s \$0_on;
#X obj 868 107 r \$0_on;
#X text 229 292 Clique aqui para ligar o áudio, f 16;
#X msg 475 137 print;
#X msg 398 -14 start;
#X msg 483 68 stop;
#X obj 392 157 writesf~ 2;
#X obj 395 48 del 1000;
#X obj 212 534 bng 15 250 50 0 empty empty empty 17 7 0 10 -159808
-1 -1;
#X text 231 529 Clique aqui para começar a gravar, f 16;
#X floatatom 204 597 5 500 100000 0 - - -;
#X obj 70 549 s 0$_bang_record;
#X obj 395 -77 r 0$_bang_record;
#X obj 33 616 s \$0_bang_tempo_record;
#X obj 448 -5 r \$0_bang_tempo_record;
#X msg 447 -28 open nova_gravacao.wav;
#X obj 395 -48 t b b;
#X text 245 568 Defina o tempo de gravação em ms. Padrão: 1s=1000ms.
, f 14;
#X obj 130 176 s \$0_l;
#X obj 31 -5 s \$0_f1;
#X obj 54 20 s \$0_f2;
#X obj 129 -74 r \$0_f1;
#X obj 531 211 r \$0_f1;
#X obj 736 211 r \$0_f2;
#X obj 257 -73 r \$0_f2;
#X obj 653 194 s \$0_bdly;
#X obj 309 -24 r \$0_bdly;
#X obj 183 -28 r \$0_bdly;
#X obj 376 647 s~ \$0_sig1;
#X obj 713 653 s~ \$0_sig2;
#X obj 740 -56 r~ \$0_sig1;
#X obj 870 -57 r~ \$0_sig2;
#X obj 393 90 r~ \$0_sig1;
#X obj 395 114 r~ \$0_sig2;
#X msg 528 187 send float_zero;
#X msg 733 187 send float_um;
#X obj 472 378 hsl 64 20 0.0001 20000 1 0 empty empty freq.mod.1 -2
-8 0 16 -262144 -1 -1 0 1;
#X obj 571 378 hsl 64 20 0.001 100 1 0 empty empty ind.mod.1 -2 -8
0 16 -262144 -1 -1 0 1;
#X floatatom 469 403 5 0 0 1 Hz - #0D_f1;
#X floatatom 568 403 5 0 0 0 - - #0D_i1;
#X text 653 301 Seletor de Timbre;
#X text 424 332 Selecione a frequência de modulação e o índice
de modulação para alterar o Timbre., f 85;
#X text 526 318 Modulação em Frequência/Fase e índice de modulação.
, f 63;
#X obj 810 377 hsl 64 20 0.0001 20000 1 0 empty empty freq.mod.2 -2
-8 0 16 -262144 -1 -1 4400 1;
#X obj 909 377 hsl 64 20 0.001 100 1 0 empty empty ind.mod.2 -2 -8
0 16 -262144 -1 -1 3700 1;
#X floatatom 807 402 5 0 0 1 Hz - #0D_f2;
#X floatatom 906 402 5 0 0 0 - - #0D_i2;
#N canvas 56 96 1143 577 waveshaper 0;
#X obj 1015 3 inlet;
#X obj 965 423 outlet~;
#X obj 13 62 vradio 20 1 1 4 empty empty empty 0 -8 0 10 -262144 -1
-1 0;
#X text 12 42 Waveshaper:;
#X obj 1187 301 declare -lib zexy;
#X obj 1057 378 line~;
#X floatatom 1015 31 8 0 0 1 Hz - -;
#X obj 1441 197 line~;
#X obj 116 112 hsl 128 20 0.001 1000 1 0 empty empty y_(potência)
-2 -8 0 16 -262144 -1 -1 6350 1;
#X floatatom 257 114 8 0 0 1 - - -;
#X obj 1111 209 clip~;
#X obj 117 67 hsl 128 20 0.1 1 0 0 empty empty c_(clipping) -2 -8 0
16 -262144 -1 -1 12700 1;
#X floatatom 256 67 8 0 0 1 - - -;
#X obj 1134 172 * -1;
#X obj 1134 144 t f f;
#X text 36 62 DESLIGADO;
#X obj 861 69 loadbang;
#X msg 861 98 1;
#X text 36 119 POTÊNCIA;
#X msg 1441 162 \$1 20;
#X msg 1057 354 \$1 20;
#X text 36 99 CLIPPING;
#X text 37 80 MONÔMIO;
#X obj 1061 110 expr~ pow($v1 \, $f2);
#X obj 117 20 hsl 128 20 1 100 0 0 empty empty k_(monômio) -2 -8 0
16 -262144 -1 -1 0 1;
#X floatatom 255 19 8 0 0 1 - - -;
#X obj 769 107 i;
#X obj 1160 240 expr~ if($v1<0 \, -pow(-$v1 \, $v2) \, pow($v1 \, $v2))
;
#X obj 861 127 t f f f;
#N canvas 56 96 450 250 (subpatch) 0;
#X array \$0I_waveshaper 100 float 2;
#X coords 0 1 100 -1 150 150 1 0 0;
#X restore 607 236 graph;
#X text 583 384 -1;
#X text 742 384 +1;
#X text 583 227 +1;
#X obj 654 443 t f f f f;
#X obj 1294 552 spigot;
#X obj 1294 581 ofelia f \; local w=ofArray("\$0I_waveshaper") \; local
N=w:getSize() \; for n=0 \, N-1 do \; w[n] = (-1+2*n/N)^a \; end \;
;
#X obj 854 552 spigot;
#X obj 854 581 ofelia f \; local w=ofArray("\$0I_waveshaper") \; local
N=w:getSize() \; for n=0 \, N-1 do \; w[n] = math.min(a \, math.max(-a
\, -1+2*n/N)) \; end \;;
#X obj 554 522 spigot;
#X obj 554 551 ofelia f \; local w=ofArray("\$0I_waveshaper") \; local
N=w:getSize() \; for n=0 \, N-1 do \; local x = -1+2*n/N \; if x<0
then w[n] = -(-x)^a \; else w[n] = x^a end \; end \;;
#N canvas 88 334 730 432 \$0D_síntese 0;
#X obj 211 297 outlet~;
#X msg 43 55 \$1 10;
#X obj 43 84 line~;
#X obj 43 113 osc~;
#X msg 283 55 \$1 10;
#X obj 283 84 line~;
#X obj 43 182 +~;
#X obj 43 142 *~;
#X msg 153 55 \$1 10;
#X obj 153 84 line~;
#X obj 125 113 *~;
#X text 162 113 a=if;
#X obj 283 27 inlet;
#X obj 211 201 osc~;
#X obj 43 29 r \$0D_f1;
#X obj 153 26 r \$0D_i1;
#X connect 1 0 2 0;
#X connect 2 0 3 0;
#X connect 2 0 10 0;
#X connect 3 0 7 0;
#X connect 4 0 5 0;
#X connect 5 0 6 1;
#X connect 6 0 13 0;
#X connect 7 0 6 0;
#X connect 8 0 9 0;
#X connect 9 0 10 1;
#X connect 10 0 7 1;
#X connect 12 0 4 0;
#X connect 13 0 0 0;
#X connect 14 0 1 0;
#X connect 15 0 8 0;
#X restore 998 70 pd \$0D_síntese;
#X obj 964 397 *~;
#X obj 565 490 == 3;
#X obj 865 520 == 2;
#X obj 1305 520 == 1;
#X obj 964 301 multiplex~ - - - -;
#X text 1 -1 Frequência 1;
#X obj 1057 329 r \$0_vol1;
#X connect 0 0 6 0;
#X connect 2 0 33 0;
#X connect 5 0 41 1;
#X connect 6 0 40 0;
#X connect 7 0 27 1;
#X connect 8 0 9 0;
#X connect 9 0 19 0;
#X connect 9 0 38 0;
#X connect 10 0 45 2;
#X connect 11 0 12 0;
#X connect 12 0 14 0;
#X connect 12 0 36 0;
#X connect 13 0 10 1;
#X connect 14 0 13 0;
#X connect 14 1 10 2;
#X connect 16 0 17 0;
#X connect 17 0 28 0;
#X connect 19 0 7 0;
#X connect 20 0 5 0;
#X connect 23 0 45 1;
#X connect 24 0 26 0;
#X connect 25 0 23 1;
#X connect 25 0 34 0;
#X connect 26 0 25 0;
#X connect 27 0 45 3;
#X connect 28 0 8 0;
#X connect 28 1 11 0;
#X connect 28 2 24 0;
#X connect 33 0 42 0;
#X connect 33 1 43 0;
#X connect 33 2 44 0;
#X connect 33 3 45 0;
#X connect 34 0 35 0;
#X connect 36 0 37 0;
#X connect 38 0 39 0;
#X connect 40 0 23 0;
#X connect 40 0 10 0;
#X connect 40 0 27 0;
#X connect 40 0 45 0;
#X connect 41 0 1 0;
#X connect 42 0 38 1;
#X connect 43 0 36 1;
#X connect 44 0 34 1;
#X connect 45 0 41 0;
#X connect 47 0 20 0;
#X coords 0 -1 1 1 330 160 2 0 0;
#X restore 377 465 pd waveshaper;
#N canvas 56 96 1143 586 waveshaper 0;
#X obj 1015 3 inlet;
#X obj 965 423 outlet~;
#X obj 13 62 vradio 20 1 1 4 empty empty empty 0 -8 0 10 -262144 -1
-1 0;
#X text 12 42 Waveshaper:;
#X obj 1187 301 declare -lib zexy;
#X obj 1007 377 line~;
#X floatatom 1015 31 8 0 0 1 Hz - -;
#X obj 1441 197 line~;
#X obj 116 112 hsl 128 20 0.001 1000 1 0 empty empty y_(potência)
-2 -8 0 16 -262144 -1 -1 6050 1;
#X floatatom 257 114 8 0 0 1 - - -;
#X obj 1111 209 clip~;
#X obj 117 67 hsl 128 20 0.1 1 0 0 empty empty c_(clipping) -2 -8 0
16 -262144 -1 -1 5600 1;
#X floatatom 256 67 8 0 0 1 - - -;
#X obj 1134 172 * -1;
#X obj 1134 144 t f f;
#X text 36 62 DESLIGADO;
#X obj 861 69 loadbang;
#X msg 861 98 1;
#X text 36 119 POTÊNCIA;
#X msg 1441 162 \$1 20;
#X msg 1007 348 \$1 20;
#X text 36 99 CLIPPING;
#X text 37 80 MONÔMIO;
#X obj 1061 110 expr~ pow($v1 \, $f2);
#X obj 117 20 hsl 128 20 1 100 0 0 empty empty k_(monômio) -2 -8 0
16 -262144 -1 -1 0 1;
#X floatatom 255 19 8 0 0 1 - - -;
#X obj 769 107 i;
#X obj 1160 240 expr~ if($v1<0 \, -pow(-$v1 \, $v2) \, pow($v1 \, $v2))
;
#X obj 861 127 t f f f;
#N canvas 0 0 450 250 (subpatch) 0;
#X array \$0I_waveshaper1 100 float 2;
#X coords 0 1 100 -1 150 150 1 0 0;
#X restore 607 236 graph;
#X text 583 384 -1;
#X text 742 384 +1;
#X text 583 227 +1;
#X obj 654 443 t f f f f;
#X obj 1294 552 spigot;
#X obj 854 552 spigot;
#X obj 554 522 spigot;
#X obj 964 396 *~;
#X obj 565 490 == 3;
#X obj 865 520 == 2;
#X obj 1305 520 == 1;
#X obj 964 301 multiplex~ - - - -;
#N canvas 234 249 730 432 \$1D_síntese 0;
#X obj 211 297 outlet~;
#X msg 43 55 \$1 10;
#X obj 43 84 line~;
#X obj 43 113 osc~;
#X msg 283 55 \$1 10;
#X obj 283 84 line~;
#X obj 43 182 +~;
#X obj 43 142 *~;
#X msg 153 55 \$1 10;
#X obj 153 84 line~;
#X obj 125 113 *~;
#X text 162 113 a=if;
#X obj 283 29 inlet;
#X obj 211 201 osc~;
#X obj 43 25 r \$0D_f2;
#X obj 153 26 r \$0D_i2;
#X connect 1 0 2 0;
#X connect 2 0 3 0;
#X connect 2 0 10 0;
#X connect 3 0 7 0;
#X connect 4 0 5 0;
#X connect 5 0 6 1;
#X connect 6 0 13 0;
#X connect 7 0 6 0;
#X connect 8 0 9 0;
#X connect 9 0 10 1;
#X connect 10 0 7 1;
#X connect 12 0 4 0;
#X connect 13 0 0 0;
#X connect 14 0 1 0;
#X connect 15 0 8 0;
#X restore 1003 75 pd \$1D_síntese;
#X obj 554 551 ofelia f \; local w=ofArray("\$0I_waveshaper1") \; local
N=w:getSize() \; for n=0 \, N-1 do \; local x = -1+2*n/N \; if x<0
then w[n] = -(-x)^a \; else w[n] = x^a end \; end \;;
#X obj 854 581 ofelia f \; local w=ofArray("\$0I_waveshaper1") \; local
N=w:getSize() \; for n=0 \, N-1 do \; w[n] = math.min(a \, math.max(-a
\, -1+2*n/N)) \; end \;;
#X obj 1294 581 ofelia f \; local w=ofArray("\$0I_waveshaper1") \;
local N=w:getSize() \; for n=0 \, N-1 do \; w[n] = (-1+2*n/N)^a \;
end \;;
#X text 1 -1 Frequência 2;
#X obj 1007 323 r \$0_vol2;
#X connect 0 0 6 0;
#X connect 2 0 33 0;
#X connect 5 0 37 1;
#X connect 6 0 42 0;
#X connect 7 0 27 1;
#X connect 8 0 9 0;
#X connect 9 0 19 0;
#X connect 9 0 36 0;
#X connect 10 0 41 2;
#X connect 11 0 12 0;
#X connect 12 0 14 0;
#X connect 12 0 35 0;
#X connect 13 0 10 1;
#X connect 14 0 13 0;
#X connect 14 1 10 2;
#X connect 16 0 17 0;
#X connect 17 0 28 0;
#X connect 19 0 7 0;
#X connect 20 0 5 0;
#X connect 23 0 41 1;
#X connect 24 0 26 0;
#X connect 25 0 23 1;
#X connect 25 0 34 0;
#X connect 26 0 25 0;
#X connect 27 0 41 3;
#X connect 28 0 8 0;
#X connect 28 1 11 0;
#X connect 28 2 24 0;
#X connect 33 0 38 0;
#X connect 33 1 39 0;
#X connect 33 2 40 0;
#X connect 33 3 41 0;
#X connect 34 0 45 0;
#X connect 35 0 44 0;
#X connect 36 0 43 0;
#X connect 37 0 1 0;
#X connect 38 0 36 1;
#X connect 39 0 35 1;
#X connect 40 0 34 1;
#X connect 41 0 37 0;
#X connect 42 0 41 0;
#X connect 42 0 23 0;
#X connect 42 0 10 0;
#X connect 42 0 27 0;
#X connect 47 0 20 0;
#X coords 0 -1 1 1 330 160 2 0 0;
#X restore 712 466 pd waveshaper;
#X text 355 287 \; \; \; \; \; \; \; \; \; \; \; \; \; \; \; \; \;
\; \; \; \; \; \;;
#X obj 478 444 hsl 128 15 1e-05 1 0 1 \$0_vol1 empty Volume_Frequência_1
-2 -8 0 10 -1 -262144 -1 4900 1;
#X obj 820 442 hsl 128 15 1e-05 1 0 1 \$0_vol2 empty Volume_Frequência_2
-2 -8 0 10 -1 -262144 -1 1900 1;
#X obj 740 -16 *~ 0;
#X obj 778 -33 r \$0_l;
#X obj 740 33 *~ 0.5;
#X obj 780 -13 r vol;
#X obj 740 7 *~ 0;
#X obj 869 -16 *~ 0;
#X obj 907 -33 r \$0_l;
#X obj 869 33 *~ 0.5;
#X obj 909 -13 r vol;
#X obj 869 7 *~ 0;
#X obj 129 43 s \$0_frequencia1;
#X obj 257 43 s \$0_frequencia2;
#X obj 377 262 r \$0_frequencia1;
#X obj 712 267 r \$0_frequencia2;
#X connect 0 0 29 0;
#X connect 1 0 2 0;
#X connect 2 0 5 0;
#X connect 3 0 13 0;
#X connect 5 0 3 0;
#X connect 5 1 60 0;
#X connect 5 2 61 0;
#X connect 6 0 30 1;
#X connect 9 0 31 1;
#X connect 11 0 29 0;
#X connect 14 0 20 0;
#X connect 14 0 28 0;
#X connect 15 0 59 0;
#X connect 16 0 17 0;
#X connect 17 0 15 0;
#X connect 18 0 19 0;
#X connect 21 0 22 0;
#X connect 22 0 16 0;
#X connect 23 0 24 0;
#X connect 25 0 27 0;
#X connect 27 0 75 0;
#X connect 27 0 76 0;
#X connect 27 0 66 0;
#X connect 28 0 10 0;
#X connect 29 0 0 0;
#X connect 30 0 34 0;
#X connect 31 0 35 0;
#X connect 32 0 34 1;
#X connect 33 0 35 1;
#X connect 34 0 103 0;
#X connect 35 0 104 0;
#X connect 36 0 41 0;
#X connect 37 1 40 0;
#X connect 38 0 37 1;
#X connect 42 0 37 0;
#X connect 44 0 47 0;
#X connect 45 0 47 0;
#X connect 46 0 47 0;
#X connect 48 0 46 0;
#X connect 49 0 52 0;
#X connect 51 0 54 0;
#X connect 53 0 57 0;
#X connect 55 0 48 1;
#X connect 56 0 47 0;
#X connect 57 0 48 0;
#X connect 57 0 45 0;
#X connect 57 1 56 0;
#X connect 62 0 30 0;
#X connect 63 0 7 0;
#X connect 64 0 8 0;
#X connect 65 0 31 0;
#X connect 67 0 33 0;
#X connect 68 0 32 0;
#X connect 71 0 93 0;
#X connect 72 0 98 0;
#X connect 73 0 47 0;
#X connect 73 0 47 1;
#X connect 74 0 47 0;
#X connect 74 0 47 1;
#X connect 75 0 7 0;
#X connect 76 0 8 0;
#X connect 77 0 79 0;
#X connect 78 0 80 0;
#X connect 84 0 86 0;
#X connect 85 0 87 0;
#X connect 88 0 69 0;
#X connect 89 0 70 0;
#X connect 93 0 97 0;
#X connect 94 0 93 1;
#X connect 95 0 4 0;
#X connect 95 0 4 1;
#X connect 96 0 97 1;
#X connect 97 0 95 0;
#X connect 98 0 102 0;
#X connect 99 0 98 1;
#X connect 100 0 4 0;
#X connect 100 0 4 1;
#X connect 101 0 102 1;
#X connect 102 0 100 0;
#X connect 105 0 88 0;
#X connect 106 0 89 0;
#X coords 0 -1 1 1 850 350 2 200 290;
#X restore 17 2 pd instrucam;
